<?xml version="1.0" encoding="UTF-8"?>
<!DOCTYPE svg PUBLIC "-//W3C//DTD SVG 1.1//EN" "http://www.w3.org/Graphics/SVG/1.1/DTD/svg11.dtd">
<svg xmlns="http://www.w3.org/2000/svg" version="1.1" width="113px" height="24px" style="shape-rendering:geometricPrecision; text-rendering:geometricPrecision; image-rendering:optimizeQuality; fill-rule:evenodd; clip-rule:evenodd" xmlns:xlink="http://www.w3.org/1999/xlink">
<g><path style="opacity:0.83" fill="#5c0000" d="M 33.5,3.5 C 42.3613,3.88905 45.1947,8.22238 42,16.5C 38.0036,20.203 33.837,20.3697 29.5,17C 26.0288,10.9195 27.3622,6.41952 33.5,3.5 Z M 33.5,7.5 C 39.4877,7.66395 40.821,10.164 37.5,15C 31.4034,15.1475 30.0701,12.6475 33.5,7.5 Z"/></g>
<g><path style="opacity:0.768" fill="#5c0000" d="M 58.5,5.5 C 57.5508,8.70706 55.5508,9.37373 52.5,7.5C 49.0254,8.1432 47.8588,10.1432 49,13.5C 50.4443,15.1554 52.2776,15.822 54.5,15.5C 54.5,13.8333 54.5,12.1667 54.5,10.5C 55.8333,10.5 57.1667,10.5 58.5,10.5C 59.0202,18.6417 55.3535,21.1417 47.5,18C 43.5,13.6667 43.5,9.33333 47.5,5C 51.273,3.02816 54.9396,3.19482 58.5,5.5 Z"/></g>
<g><path style="opacity:0.937" fill="#ff6a66" d="M 112.5,7.5 C 112.5,10.1667 112.5,12.8333 112.5,15.5C 107.343,20.4226 101.843,20.7559 96,16.5C 93.6141,6.21732 97.7808,2.05066 108.5,4C 109.705,5.37561 111.038,6.54227 112.5,7.5 Z"/></g>
<g><path style="opacity:0.808" fill="#5c0000" d="M 0.5,4.5 C 5.84372,4.33398 11.1771,4.50065 16.5,5C 17.8563,7.39755 19.0229,9.89755 20,12.5C 21.9927,10.1825 23.1594,7.51583 23.5,4.5C 25.1992,4.33982 26.8659,4.50649 28.5,5C 26.4072,9.10617 24.4072,13.2728 22.5,17.5C 20.8333,18.8333 19.1667,18.8333 17.5,17.5C 16,13.8333 14.5,10.1667 13,6.5C 10.1997,7.12534 7.36639,7.792 4.5,8.5C 6.74269,9.47423 9.07603,9.80756 11.5,9.5C 11.5,10.8333 11.5,12.1667 11.5,13.5C 9.07603,13.1924 6.74269,13.5258 4.5,14.5C 7.08645,15.48 9.75312,15.8134 12.5,15.5C 12.5,16.5 12.5,17.5 12.5,18.5C 8.5,18.5 4.5,18.5 0.5,18.5C 0.5,13.8333 0.5,9.16667 0.5,4.5 Z"/></g>
<g><path style="opacity:0.787" fill="#5d0000" d="M 58.5,5.5 C 62.5072,3.50428 65.0072,4.83761 66,9.5C 68.8587,4.74338 73.0253,3.41004 78.5,5.5C 79.4672,7.62972 80.6338,9.62972 82,11.5C 83.5,9.33333 85,7.16667 86.5,5C 87.7932,4.50999 89.1266,4.34332 90.5,4.5C 90.5,9.16667 90.5,13.8333 90.5,18.5C 89.1667,18.5 87.8333,18.5 86.5,18.5C 86.6602,16.8008 86.4935,15.1341 86,13.5C 83.0329,18.7326 80.3662,18.3992 78,12.5C 77.5045,14.4727 77.3379,16.4727 77.5,18.5C 76.1667,18.5 74.8333,18.5 73.5,18.5C 73.6657,14.1539 73.499,9.82056 73,5.5C 69.7899,9.25107 68.2899,13.5844 68.5,18.5C 66.8333,18.5 65.1667,18.5 63.5,18.5C 63.7533,13.3534 62.0867,9.0201 58.5,5.5 Z"/></g>
</svg>
